<svg width="1376" height="1292.69665" xmlns="http://www.w3.org/2000/svg" xmlns:xlink="http://www.w3.org/1999/xlink"><defs><symbol viewBox="0 0 22 22" fill="none" id="copy">
<path d="M14.4375 14.4375H18.5625V3.4375H7.5625V7.5625" stroke-width="1" stroke-linecap="round" stroke-linejoin="round" vector-effect="non-scaling-stroke" />
<path d="M14.4375 7.5625H3.4375V18.5625H14.4375V7.5625Z" stroke-width="1" stroke-linecap="round" stroke-linejoin="round" vector-effect="non-scaling-stroke" />
</symbol><symbol id="cross" viewBox="0 0 8.70703 8.70703">
  <polygon points="8 8.70703 4.35352 5.06055 .70703 8.70703 0 8 3.64648 4.35352 0 .70703 .70703 0 4.35352 3.64648 8 0 8.70703 .70703 5.06055 4.35352 8.70703 8 8 8.70703" style="stroke-width: 0px;" />
</symbol><symbol id="cross-thin" viewBox="0 0 21.21289 21.21289">
  <polygon points="19.79883 21.21289 10.60645 12.02051 1.41406 21.21289 0 19.79883 9.19238 10.60645 0 1.41406 1.41406 0 10.60645 9.19238 19.79883 0 21.21289 1.41406 12.02051 10.60645 21.21289 19.79883 19.79883 21.21289" style="fill: #010101; stroke-width: 0px;" />
</symbol><symbol viewBox="0 0 22.59961 22.59961" id="explore-earth"><path d="M19.29004,3.30957C17.33789,1.35699,14.79431.21881,12.06433.03723c-.0932-.03339-.19147-.03918-.28949-.0141-.15857-.00653-.31537-.02313-.47504-.02313-.1604,0-.31787.01666-.47717.02325-.099-.02557-.19818-.01965-.29199.01422-2.72809.18268-5.26959,1.32062-7.22107,3.27209C1.17529,5.44385,0,8.28125,0,11.2998c0,1.49219.28955,2.94727.86035,4.32422.57031,1.37793,1.39453,2.61133,2.44922,3.66602s2.28809,1.87891,3.6665,2.4502c1.14764.47479,2.34979.7428,3.5799.82318.04755.01447.09332.03619.14325.03619.02966,0,.05713-.01965.08673-.02502.17139.00775.34143.02502.51385.02502.17169,0,.34106-.01727.51178-.0249.02942.00531.05682.0249.08636.0249.04956,0,.09509-.02167.14233-.03601,1.23175-.08014,2.43542-.34808,3.58374-.82336,1.37793-.57031,2.61133-1.39551,3.66602-2.4502s1.87988-2.28809,2.4502-3.66602.85938-2.83301.85938-4.32422c0-3.01855-1.17578-5.85596-3.30957-7.99023ZM15.25562,14.40039c.1532-1.02234.23657-2.05768.23657-3.10059,0-1.04218-.08325-2.0769-.23633-3.09863h5.86719c.31097.99005.47656,2.03113.47656,3.09863,0,1.06-.16541,2.09851-.48236,3.10059h-5.86163ZM1.48267,14.40039c-.31732-1.00153-.48267-2.03998-.48267-3.10059,0-1.0675.16559-2.10858.47656-3.09863h5.86511c-.15302,1.02167-.23621,2.0564-.23621,3.09863,0,1.04291.08337,2.07825.23657,3.10059H1.48267ZM8.10547,11.2998c0-1.04303.09027-2.07764.2511-3.09863h5.8844c.16095,1.02106.25122,2.05566.25122,3.09863,0,1.0437-.09039,2.07892-.25153,3.10059h-5.88379c-.16101-1.02167-.2514-2.05695-.2514-3.10059ZM20.74756,7.20117h-5.66797c-.42468-2.12384-1.18134-4.17102-2.24402-6.07568,2.16705.32263,4.16974,1.31342,5.74744,2.89111.93109.93109,1.65558,2.0119,2.16455,3.18457ZM11.61871,1.0155c1.1604,1.92145,1.98804,4.00995,2.44592,6.18567h-5.5318c.45776-2.17584,1.28503-4.26428,2.4455-6.18555.10754-.0033.21344-.01562.32147-.01562.10718,0,.21222.01227.31891.0155ZM4.0166,4.0166c1.57703-1.57703,3.57843-2.56757,5.74445-2.89069-1.06226,1.90436-1.81854,3.95135-2.2431,6.07526H1.85205c.50897-1.17267,1.23346-2.25348,2.16455-3.18457ZM4.0166,18.58301c-.91968-.92017-1.64062-1.99231-2.15723-3.18262h5.65887c.42419,2.12103,1.17914,4.16541,2.23932,6.06738-.81848-.1228-1.62598-.33191-2.39917-.65137-1.25586-.52051-2.38037-1.27246-3.3418-2.2334ZM10.97559,21.57928c-1.15863-1.91925-1.98499-4.00531-2.44244-6.17889h5.53119c-.45758,2.17334-1.28424,4.25928-2.44293,6.17902-.21552.00665-.4303.00659-.64581-.00012ZM18.58301,18.58301c-.96191.96191-2.08594,1.71289-3.3418,2.2334-.77405.31989-1.58252.52911-2.40216.65186,1.06073-1.9021,1.81604-3.94666,2.2403-6.06787h5.6618c-.51709,1.19031-1.23798,2.26245-2.15814,3.18262Z" /></symbol><symbol viewBox="0 0 19.2002 20.19922" id="explore-list"><path d="M18.2002,16.10156H1c-.55127,0-1-.44824-1-1V5.10156c0-.55127.44873-1,1-1h17.2002c.55176,0,1,.44873,1,1v10c0,.55176-.44824,1-1,1ZM1,5.10107v10.00049h17.2002V5.10156l-17.2002-.00049ZM.99902,5.10156h.00098" /><path d="M17.28125,20.19922H1.92139c-.27637,0-.5-.22363-.5-.5s.22363-.5.5-.5h15.35986c.27637,0,.5.22363.5.5s-.22363.5-.5.5Z" /><path d="M17.28125,1H1.92139c-.27637,0-.5-.22363-.5-.5s.22363-.5.5-.5h15.35986c.27637,0,.5.22363.5.5s-.22363.5-.5.5Z" /></symbol><symbol viewBox="0 0 19 11" id="gallery">
  <path d="M16.5,0h-3v.00586c-.05957-.00391-.12109-.00586-.18164-.00586h-7.63672c-.06104,0-.12158.00195-.18164.00586l-3-.00586C1.12158,0,0,1.12158,0,2.5v6c0,1.37891,1.12158,2.5,2.5,2.5h3v-.00586c.06006.00391.12061.00586.18164.00586h7.63672c.06055,0,.12207-.00195.18164-.00586l3,.00586c1.37891,0,2.5-1.12109,2.5-2.5V2.5c0-1.37842-1.12109-2.5-2.5-2.5ZM3.5376,10h-1.0376c-.82715,0-1.5-.67285-1.5-1.5V2.5c0-.82715.67285-1.5,1.5-1.5h1.0376c-.3374.41797-.5376.9375-.5376,1.5v6c0,.5625.2002,1.08203.5376,1.5ZM15,8.5c0,.82715-.75391,1.5-1.68164,1.5h-7.63672c-.92725,0-1.68164-.67285-1.68164-1.5V2.5c0-.82715.75439-1.5,1.68164-1.5h7.63672c.92773,0,1.68164.67285,1.68164,1.5v6ZM18,8.5c0,.82715-.67285,1.5-1.5,1.5h-1.03711c.33691-.41797.53711-.9375.53711-1.5V2.5c0-.5625-.2002-1.08203-.53711-1.5h1.03711c.82715,0,1.5.67285,1.5,1.5v6Z" style="stroke-width: 0px;" />
</symbol><symbol viewBox="0 0 16 16" id="info">
    <g fill-rule="evenodd" clip-path="url(#info_a)" clip-rule="evenodd">
        <path d="M8.003 2a6 6 0 1 0 0 12 6 6 0 0 0 0-12ZM.669 8a7.333 7.333 0 1 1 14.667 0A7.333 7.333 0 0 1 .669 8Z" />
        <path d="M8 7.333c.368 0 .667.299.667.667v2.667a.667.667 0 1 1-1.334 0V8c0-.368.299-.667.667-.667ZM7.333 5.334c0-.368.299-.667.667-.667h.007a.667.667 0 1 1 0 1.334H8a.667.667 0 0 1-.667-.667Z" />
    </g>
    <defs>
        
    </defs>
</symbol><clipPath id="info_a">
            <path d="M0 0h16v16H0z" />
        </clipPath><symbol viewBox="0 0 488 237" id="leading-by-design">
    <path d="M131.307 57.4225V75.8128H75.4142V1.73453H96.7672V57.4225H131.307Z" />
    <path d="M128.544 1.73453H187.194V20.0225H149.902V29.4223H185.255V47.8126H149.902V57.4172H187.604V75.8074H128.544V1.73453Z" />
    <path d="M206.71 1.73453H230.11L256.985 75.8128H233.789L230.008 63.4503H206.403L202.622 75.8128H179.836L206.71 1.73453ZM211.408 47.511H225.101L218.356 25.2368L211.408 47.511Z" />
    <path d="M279.356 1.73453C303.165 1.73453 322.067 10.6226 322.067 38.7252C322.067 66.8278 303.165 75.8128 279.356 75.8128H253.812V1.73453H279.356ZM279.663 19.0044H275.165V58.5484H279.663C291.411 58.5484 299.793 55.5857 299.793 38.7252C299.793 21.8647 291.417 19.0044 279.663 19.0044Z" />
    <path d="M342.908 75.8128H321.555V1.73453H342.908V75.8128Z" />
    <path d="M389.294 75.8128L366.61 28.6089V75.8128H346.889V1.73453H373.15L395.935 48.8361V1.73453H415.656V75.8128H389.294Z" />
    <path d="M437.419 38.3158C437.419 50.6784 442.832 59.2594 453.563 59.2594C462.962 59.2594 467.256 53.7434 467.256 49.7572V49.6549H451.214V33.5108H488V75.8128H471.344L471.242 67.9428C466.744 74.38 458.982 77.138 449.889 77.138C428.638 77.138 415.15 61.9151 415.15 38.3104C415.15 14.7058 429.549 0 452.949 0C469.4 0 483.497 7.66532 487.585 25.3392H466.642C465.311 21.1483 461.126 17.8786 453.256 17.8786C443.446 17.8786 437.419 25.3392 437.419 38.3158Z" />
    <path d="M75.4142 81.6197H107.907C124.46 81.6197 136.823 85.2989 136.823 101.238C136.823 107.368 135.191 111.866 131 115.648C136.209 118.815 139.581 123.922 139.581 132.099C139.581 148.959 127.423 155.703 109.232 155.703H75.4088V81.6251L75.4142 81.6197ZM96.7726 110.843H108.521C112.61 110.843 114.856 108.085 114.856 104.917C114.856 101.75 112.61 98.8896 108.521 98.8896H96.7726V110.843ZM96.7726 138.428H109.852C114.657 138.428 117.312 135.67 117.312 132.093C117.312 128.517 114.657 125.656 109.852 125.656H96.7726V138.428Z" />
    <path d="M156.441 81.6197L170.339 107.471L184.442 81.6197H209.371L180.66 127.089V155.698H159.307V126.884L131.415 81.6197H156.447H156.441Z" />
    <path d="M100.958 161.5C124.767 161.5 143.669 170.388 143.669 198.49C143.669 226.593 124.767 235.578 100.958 235.578H75.4142V161.5H100.958ZM101.265 178.769H96.7672V218.313H101.265C113.014 218.313 121.395 215.351 121.395 198.49C121.395 181.63 113.019 178.769 101.265 178.769Z" />
    <path d="M143.158 161.5H201.808V179.788H164.516V189.187H199.869V207.578H164.516V217.182H202.218V235.572H143.158V161.494V161.5Z" />
    <path d="M233.278 159.765C246.664 159.765 256.371 162.728 265.77 167.937L256.78 185.611C251.366 182.341 241.557 178.764 232.567 178.764C226.846 178.764 223.576 180.095 223.576 182.955C223.576 185.099 225.618 186.634 229.706 187.555L240.641 189.801C254.539 192.764 266.288 197.16 266.288 211.769C266.288 228.527 251.878 236.903 233.897 236.903C218.06 236.903 206.613 232.405 198.339 226.275L208.865 209.005C215.098 213.605 225.009 217.689 234.614 217.689C240.641 217.689 244.321 216.665 244.321 213.498C244.321 210.33 240.232 208.8 233.283 207.265L224.907 205.531C213.261 203.08 201.711 197.461 201.711 183.359C201.711 167.317 217.446 159.754 233.283 159.754L233.278 159.765Z" />
    <path d="M287.835 235.578H266.482V161.5H287.835V235.578Z" />
    <path d="M309.699 198.081C309.699 210.443 315.113 219.024 325.843 219.024C335.243 219.024 339.536 213.508 339.536 209.522V209.42H323.495V193.276H360.281V235.578H343.625L343.523 227.708C339.025 234.145 331.262 236.903 322.17 236.903C300.919 236.903 287.431 221.68 287.431 198.075C287.431 174.471 301.84 159.76 325.235 159.76C341.686 159.76 355.783 167.425 359.871 185.099H338.928C337.597 180.908 333.412 177.638 325.542 177.638C315.732 177.638 309.705 185.099 309.705 198.075L309.699 198.081Z" />
    <path d="M406.052 235.578L383.368 188.374V235.578H363.647V161.5H389.908L412.694 208.601V161.5H432.414V235.578H406.052Z" />
    <path d="M39.474 18.9667L55.6772 12.7612L61.8828 28.9644L45.3347 34.8252L55.3325 48.7876L41.5425 58.9578L31.0276 44.4782L21.2022 58.9578L6.55026 49.1324L16.7204 34.8252L0 28.9644L6.20551 12.7612L22.064 18.9667V1.72914H39.474V18.9667Z" />
</symbol><symbol id="logo-small" viewBox="0 0 24 24">
  <path d="M12.77197,7.46246h-3.64435v4.66156h3.66785c1.65491,0,2.72516-.90295,2.72516-2.29706v-.04578c0-1.47357-1.00195-2.31873-2.74866-2.31873Z" style="stroke-width: 0px;" />
  <path d="M0,0v24h24V0H0ZM19.64819,9.61743c0,3.52509-2.5907,5.71375-6.76068,5.71375h-3.75989v4.66882h-4.12762V4h8.11609c4.02863,0,6.5321,2.13574,6.5321,5.57172v.04572Z" style="stroke-width: 0px;" />
</symbol><symbol viewBox="0 0 1376 154.978" id="logo-wide">
  <path d="M1347.31995,17.3916v-.0897c0-7.77689,6.34009-14.29872,14.37-14.29872,8.04004,0,14.31006,6.43219,14.31006,14.20912v.0896c0,7.7769-6.33997,14.2987-14.38,14.2987-8.03003,0-14.30005-6.4322-14.30005-14.209ZM1374.32996,17.3019v-.0896c0-6.9925-5.42993-12.64029-12.64001-12.64029s-12.71997,5.71499-12.71997,12.70749v.0896c0,6.9925,5.42004,12.6403,12.63,12.6403s12.72998-5.715,12.72998-12.7075ZM1355.75,9.27848h6.77002c2.04993,0,3.64001.60512,4.70996,1.65852.82007.8292,1.27002,1.9722,1.27002,3.3169v.0897c0,2.4428-1.33997,3.9892-3.28003,4.7064l3.72998,5.4461h-3.92993l-3.23999-4.9082h-2.66003v4.9082h-3.37v-15.21762ZM1362.5,16.6968c1.68994,0,2.60999-.8965,2.60999-2.174v-.0672c0-1.4568-1.03003-2.2188-2.69995-2.2188h-3.29004v4.46h3.38ZM1203.56006,110.58c6.15991,39.153,51.04993,43.38899,70.17993,43.38899,21.39001,0,71.12-4.72899,71.12-48.67799,0-26.2894-23.85999-35.8817-47.20996-41.776-5.13-1.2774-10.25-2.398-15.13-3.4514-19.27002-4.191-34.46997-7.4631-34.46997-17.8846s11.69995-14.4332,22.63-14.4332c6.31995,0,17.85999,1.0085,24.25,7.7097,2.63,2.7566,4.05994,6.1632,4.23999,10.1077l39.48999-6.2305c-5.41003-28.5526-37.97009-38.68276-64.48999-38.68276-33.08008,0-66.46008,13.62636-66.46008,44.03916,0,26.0201,22.93005,35.4555,47.68005,41.7756,4.17993,1.0534,8.34998,1.9947,12.39001,2.936,19.89001,4.5047,36.73999,8.3372,36.73999,20.50629,0,12.17001-14.58997,16.944-28.26001,16.944-20.93005,0-31.44995-7.306-33.01001-22.995l-39.72998,6.701.04004.023ZM1034.41003,3.048v83.7977c0,44.4653,23.88,67.9523,69.03992,67.9523,45.15002,0,69.91003-23.86801,69.91003-69.05051V3.048h-39.72998v84.0218c0,21.2242-10.56006,32.9002-29.73999,32.9002-19.17004,0-29.72998-12.371-29.72998-33.9759V3.048h-39.75ZM923.66498,0c-45.31299,0-80.828,34.0435-80.828,77.5v.4258c0,43.21021,35.31403,77.0522,80.38202,77.0522s80.80103-34.022,80.80103-77.478v-.4482c0-43.21-35.28601-77.0518-80.37701-77.0518M923.64301,120.172c-22.79102,0-40.62598-18.736-40.62598-42.672v-.4482c0-24.0703,17.27698-42.2239,40.20197-42.2239s40.849,18.7587,40.849,42.6721v.4258c0,24.07021-17.36597,42.2462-40.40302,42.2462M713.90503,3.048v148.926h113.01697v-33.752h-73.909V3.048h-39.10797ZM535.15002,3.048v83.7977c0,44.4653,23.862,67.9523,69.04199,67.9523s69.91199-23.86801,69.91199-69.05051V3.048h-39.73303v84.0218c0,21.2242-10.55798,32.9002-29.73297,32.9002-19.17401,0-29.73297-12.371-29.73297-33.9759V3.048h-39.755ZM248.89101,0c-45.31401,0-80.806,34.0435-80.806,77.5v.4258c0,43.21021,35.314,77.0522,80.38199,77.0522s80.82802-34.022,80.82802-77.478v-.4482C329.29501,33.8418,293.98199,0,248.914,0M248.914,120.172c-22.791,0-40.627-18.736-40.627-42.672v-.4482c0-24.0703,17.278-42.2239,40.202-42.2239s40.84999,18.7587,40.84999,42.6721v.4258c0,24.07021-17.367,42.2462-40.40298,42.2462M0,151.974h39.086v-43.456h35.6037c39.4873,0,64.0193-20.3724,64.0193-53.1833v-.4258c0-31.9816-23.706-51.8609-61.8541-51.8609H0v148.926ZM73.8191,78.6654h-34.7331v-43.3892h34.5099c16.5407,0,26.0275,7.8665,26.0275,21.5825v.4259c0,12.9764-10.1342,21.3808-25.8043,21.3808ZM362.823,151.974h39.086v-43.456h35.604c39.48801,0,64.01901-20.3724,64.01901-53.1833v-.4258c0-31.9816-23.70602-51.8609-61.854-51.8609h-76.87701v148.926h.022ZM436.642,78.6654h-34.733v-43.3892h34.51001c16.54099,0,26.02798,7.8665,26.02798,21.5825v.4259c0,12.9764-10.13498,21.3808-25.80499,21.3808Z" style="stroke-width: 0px;" />
</symbol><symbol viewBox="0 0 22 22" fill="none" id="mail">
<path d="M4 4H18C18.9625 4 19.75 4.7875 19.75 5.75V16.25C19.75 17.2125 18.9625 18 18 18H4C3.0375 18 2.25 17.2125 2.25 16.25V5.75C2.25 4.7875 3.0375 4 4 4Z" strok-width="1" stroke-linecap="round" stroke-linejoin="round" vector-effect="non-scaling-stroke" />
<path d="M19.75 5.75L11 11.875L2.25 5.75" strok-width="1" stroke-linecap="round" stroke-linejoin="round" vector-effect="non-scaling-stroke" />
</symbol><symbol viewBox="0 0 22 22" fill="none" id="phone">
    <path vector-effect="non-scaling-stroke" d="M14.1273 12.4898C14.2225 12.4264 14.332 12.3878 14.4459 12.3775C14.5598 12.3671 14.6745 12.3854 14.7795 12.4305L18.8323 14.2464C18.9689 14.3047 19.0829 14.4058 19.1573 14.5344C19.2316 14.6629 19.2624 14.8121 19.2448 14.9596C19.1113 15.9574 18.62 16.8727 17.8622 17.5354C17.1044 18.198 16.1317 18.5629 15.125 18.5621C12.0253 18.5621 9.05252 17.3308 6.86069 15.139C4.66886 12.9471 3.4375 9.97436 3.4375 6.87464C3.43673 5.86798 3.8016 4.89529 4.46425 4.13748C5.1269 3.37967 6.04223 2.88832 7.04 2.7548C7.1875 2.73728 7.3367 2.768 7.46528 2.84236C7.59387 2.91672 7.69491 3.03072 7.75328 3.1673L9.56914 7.22355C9.61376 7.32773 9.63193 7.44133 9.62203 7.55423C9.61213 7.66713 9.57448 7.77583 9.51242 7.87066L7.67594 10.0543C7.61079 10.1526 7.57227 10.2661 7.56414 10.3838C7.556 10.5014 7.57854 10.6192 7.62953 10.7255C8.34024 12.1804 9.84414 13.6663 11.3034 14.3701C11.4103 14.4209 11.5285 14.4429 11.6465 14.434C11.7645 14.4251 11.8782 14.3856 11.9763 14.3194L14.1273 12.4898Z" stroke-width="1" stroke-linecap="round" stroke-linejoin="round" />
</symbol><symbol viewBox="0 0 384 512" id="play"><!--! Font Awesome Pro 6.5.2 by @fontawesome - https://fontawesome.com License - https://fontawesome.com/license (Commercial License) Copyright 2024 Fonticons, Inc. --><path d="M73 39c-14.8-9.1-33.4-9.4-48.5-.9S0 62.6 0 80V432c0 17.4 9.4 33.4 24.5 41.9s33.7 8.1 48.5-.9L361 297c14.3-8.7 23-24.2 23-41s-8.7-32.2-23-41L73 39z" /></symbol><symbol viewBox="0 0 14 14" id="search">
<path d="M12.7,11.8L9.6,8.7c0.2-0.3,0.4-0.7,0.6-1c0.2-0.6,0.4-1.2,0.4-1.8c0-0.6-0.1-1.2-0.4-1.8c-0.2-0.6-0.6-1.1-1-1.5
	c-0.4-0.4-1-0.8-1.5-1C6.5,1,5.2,1,4,1.4C3.4,1.7,2.9,2,2.5,2.5C2,2.9,1.7,3.4,1.4,4C1.2,4.6,1.1,5.2,1.1,5.8s0.1,1.2,0.4,1.8
	c0.2,0.6,0.6,1.1,1,1.5c0.4,0.4,1,0.8,1.5,1c0.6,0.2,1.2,0.4,1.8,0.4c0.6,0,1.2-0.1,1.8-0.4c0.4-0.2,0.7-0.4,1-0.6l3.1,3.1
	c0.1,0.1,0.3,0.2,0.5,0.2s0.3-0.1,0.5-0.2C13,12.5,13,12,12.7,11.8z M7.1,9C6.3,9.3,5.4,9.3,4.5,9C4.1,8.8,3.7,8.6,3.4,8.2
	C3.1,7.9,2.8,7.6,2.7,7.1C2.5,6.7,2.4,6.3,2.4,5.8c0-0.5,0.1-0.9,0.3-1.3c0.2-0.4,0.4-0.8,0.7-1.1c0.3-0.3,0.7-0.6,1.1-0.7
	c0.4-0.2,0.9-0.3,1.3-0.3c0.5,0,0.9,0.1,1.3,0.3c0.4,0.2,0.8,0.4,1.1,0.7C8.6,3.7,8.8,4.1,9,4.5c0.2,0.4,0.3,0.9,0.3,1.3
	c0,0.5-0.1,0.9-0.3,1.3C8.8,7.6,8.6,7.9,8.2,8.2C7.9,8.6,7.6,8.8,7.1,9z" />
</symbol><symbol id="sort" viewBox="0 0 7.00282 8.9999">
  <path d="M3.14932.14639c.09377-.09373.22092-.14639.3535-.14639.13259,0,.25974.05266.3535.14639l3,3c.01295.01295.02514.02664.0365.041l.003.004.008.011.021.0295.0045.0075.0035.005.007.0135.012.022.0035.0085.005.01.006.016.0075.017.0035.0125.004.01.0025.013.006.0185.002.014.003.0125.0015.013.003.0165.001.015.0015.014v.013l.001.0165-.001.0165v.013l-.0015.013-.001.016-.0025.0145-.002.015-.003.012-.002.015-.006.0175-.0025.0135-.004.0095-.0035.013-.0075.0165-.006.017-.005.009-.0035.009-.012.0215-.007.014-.0035.0045-.0045.008-.021.029-.006.0095-.002.0015-.003.005c-.02296.02841-.04894.05423-.0775.077l-.0045.003-.011.008-.029.021-.008.0045-.0045.0035-.014.007-.0215.012-.009.0035-.009.005-.017.006-.0165.0075-.012.003-.0105.0045-.0135.0025-.018.006-.0145.002-.012.003-.014.0015-.0155.003-.016.001-.013.0015h-.013l-.0165.001H.50282c-.445,0-.6685-.5385-.3535-.8535L3.14932.14639Z" style="stroke-width: 0px;" />
  <path d="M6.50098,5l.0165.001h.013l.013.0015.016.001.0155.003.014.0015.012.003.015.002.0175.006.0135.0025.0095.004.013.0035.0165.0075.017.006.009.005.009.0035.0215.012.014.007.0045.0035.008.0045.0255.0185.013.0085.0015.002.005.003c.02847.02289.05429.04888.077.0775l.003.0045.0075.01.0215.03.0045.008.0035.0045.007.014.012.0215.0025.0065.006.0115.006.017.0075.0165.0035.013.004.01.0025.013.006.018.002.0145.003.012.0015.014.003.0155.001.016.0015.013v.013l.001.0165-.001.0165v.013l-.0015.013-.001.016-.003.0155-.0015.014-.003.012-.002.015-.006.0175-.0025.0135-.004.0095-.0035.013-.0075.0165-.006.017-.005.009-.0035.009-.012.0215-.007.014-.0035.0045-.0045.008-.021.029-.006.0095-.002.0015-.003.005-.0365.0405-3,3c-.09377.0937-.22092.1464-.3535.1464-.13259,0-.25974-.0527-.3535-.1464L.14748,5.8535c-.315-.315-.092-.8535.3535-.8535h6Z" style="stroke-width: 0px;" />
</symbol><symbol viewBox="0 0 16 16" id="zoom">
    <path fill-rule="evenodd" d="M1.919 1.92a2 2 0 0 1 1.414-.587h2a.667.667 0 0 1 0 1.334h-2a.667.667 0 0 0-.666.666v2a.667.667 0 0 1-1.334 0v-2A2 2 0 0 1 1.92 1.92Zm8.08.08c0-.368.3-.667.668-.667h2a2 2 0 0 1 2 2v2a.667.667 0 0 1-1.334 0v-2a.667.667 0 0 0-.666-.666h-2A.667.667 0 0 1 10 2Zm-8 8c.37 0 .668.299.668.667v2a.667.667 0 0 0 .666.666h2a.667.667 0 0 1 0 1.334h-2a2 2 0 0 1-2-2v-2c0-.368.299-.667.667-.667Zm12 0c.37 0 .668.299.668.667v2a2 2 0 0 1-2 2h-2a.667.667 0 1 1 0-1.334h2a.667.667 0 0 0 .666-.666v-2c0-.368.299-.667.667-.667Z" clip-rule="evenodd" />
</symbol></defs></svg>